<svg xmlns="http://www.w3.org/2000/svg" xmlns:xlink="http://www.w3.org/1999/xlink" width="2000" zoomAndPan="magnify" viewBox="0 0 1500 1499.999933" height="2000" preserveAspectRatio="xMidYMid meet" version="1.0"><defs><g/><clipPath id="638de390d9"><path d="M 261.632812 338 L 926 338 L 926 671 L 261.632812 671 Z M 261.632812 338 " clip-rule="nonzero"/></clipPath><clipPath id="15ef1606b6"><path d="M 558 339 L 1238.128906 339 L 1238.128906 672 L 558 672 Z M 558 339 " clip-rule="nonzero"/></clipPath></defs><g clip-path="url(#638de390d9)"><path fill="#acc2b5" d="M 385.792969 670.417969 L 261.632812 670.417969 L 593.5625 338.484375 L 925.515625 670.417969 L 801.375 670.417969 L 593.5625 462.644531 Z M 471.453125 394.585938 L 383.664062 394.585938 L 383.664062 499.058594 L 471.453125 414.277344 Z M 471.453125 394.585938 " fill-opacity="1" fill-rule="nonzero"/></g><g clip-path="url(#15ef1606b6)"><path fill="#c9b3ab" d="M 838.332031 532.03125 L 776.273438 469.953125 L 906.433594 339.792969 L 1238.363281 671.726562 L 1114.203125 671.726562 L 906.433594 463.953125 Z M 585.554688 590.753906 L 585.554688 563.25 L 558.050781 563.25 L 558.050781 590.753906 Z M 631.246094 590.753906 L 631.246094 563.25 L 603.742188 563.25 L 603.742188 590.753906 Z M 585.554688 635.859375 L 585.554688 608.335938 L 558.050781 608.335938 L 558.050781 635.859375 Z M 631.246094 635.859375 L 631.246094 608.335938 L 603.742188 608.335938 L 603.742188 635.859375 Z M 631.246094 635.859375 " fill-opacity="1" fill-rule="nonzero"/></g><g fill="#acc2b5" fill-opacity="1"><g transform="translate(3.34933, 995.556504)"><g><path d="M 135.171875 5.0625 C 117.867188 5.0625 101.800781 1.972656 86.96875 -4.203125 C 72.132812 -10.390625 59.210938 -19.046875 48.203125 -30.171875 C 37.191406 -41.296875 28.648438 -54.328125 22.578125 -69.265625 C 16.515625 -84.210938 13.484375 -100.335938 13.484375 -117.640625 C 13.484375 -135.171875 16.515625 -151.460938 22.578125 -166.515625 C 28.648438 -181.566406 37.191406 -194.65625 48.203125 -205.78125 C 59.210938 -216.90625 72.132812 -225.554688 86.96875 -231.734375 C 101.800781 -237.921875 117.867188 -241.015625 135.171875 -241.015625 C 154.265625 -241.015625 171.789062 -237.082031 187.75 -229.21875 C 203.707031 -221.351562 217.078125 -210.335938 227.859375 -196.171875 C 238.648438 -182.015625 245.84375 -165.613281 249.4375 -146.96875 L 198.203125 -146.96875 C 193.484375 -160.894531 185.503906 -171.957031 174.265625 -180.15625 C 163.035156 -188.363281 150.003906 -192.46875 135.171875 -192.46875 C 121.910156 -192.46875 110 -189.148438 99.4375 -182.515625 C 88.875 -175.890625 80.503906 -166.957031 74.328125 -155.71875 C 68.148438 -144.488281 65.0625 -131.796875 65.0625 -117.640625 C 65.0625 -103.484375 68.148438 -90.84375 74.328125 -79.71875 C 80.503906 -68.59375 88.875 -59.769531 99.4375 -53.25 C 110 -46.738281 121.910156 -43.484375 135.171875 -43.484375 C 150.671875 -43.484375 164.039062 -47.863281 175.28125 -56.625 C 186.519531 -65.394531 194.269531 -77.304688 198.53125 -92.359375 L 250.109375 -92.359375 C 246.515625 -72.804688 239.378906 -55.726562 228.703125 -41.125 C 218.035156 -26.519531 204.664062 -15.171875 188.59375 -7.078125 C 172.53125 1.015625 154.722656 5.0625 135.171875 5.0625 Z M 135.171875 5.0625 "/></g></g></g><g fill="#acc2b5" fill-opacity="1"><g transform="translate(244.002155, 995.556504)"><g><path d="M 110.21875 5.0625 C 91.34375 5.0625 74.488281 0.847656 59.65625 -7.578125 C 44.832031 -16.003906 33.148438 -27.460938 24.609375 -41.953125 C 16.066406 -56.453125 11.796875 -72.804688 11.796875 -91.015625 C 11.796875 -109.441406 16.066406 -125.898438 24.609375 -140.390625 C 33.148438 -154.890625 44.832031 -166.296875 59.65625 -174.609375 C 74.488281 -182.921875 91.34375 -187.078125 110.21875 -187.078125 C 128.875 -187.078125 145.617188 -182.921875 160.453125 -174.609375 C 175.285156 -166.296875 186.96875 -154.890625 195.5 -140.390625 C 204.039062 -125.898438 208.3125 -109.441406 208.3125 -91.015625 C 208.3125 -72.804688 204.039062 -56.453125 195.5 -41.953125 C 186.96875 -27.460938 175.285156 -16.003906 160.453125 -7.578125 C 145.617188 0.847656 128.875 5.0625 110.21875 5.0625 Z M 110.21875 -41.125 C 124.375 -41.125 135.945312 -45.726562 144.9375 -54.9375 C 153.925781 -64.15625 158.421875 -76.179688 158.421875 -91.015625 C 158.421875 -105.847656 153.925781 -117.867188 144.9375 -127.078125 C 135.945312 -136.296875 124.375 -140.90625 110.21875 -140.90625 C 95.84375 -140.90625 84.160156 -136.296875 75.171875 -127.078125 C 66.179688 -117.867188 61.6875 -105.847656 61.6875 -91.015625 C 61.6875 -76.179688 66.179688 -64.15625 75.171875 -54.9375 C 84.160156 -45.726562 95.84375 -41.125 110.21875 -41.125 Z M 110.21875 -41.125 "/></g></g></g><g fill="#acc2b5" fill-opacity="1"><g transform="translate(444.882893, 995.556504)"><g><path d="M 142.921875 -182.015625 L 194.15625 -182.015625 L 121.6875 0 L 76.171875 0 L 2.359375 -182.015625 L 54.609375 -182.015625 L 99.4375 -60 Z M 142.921875 -182.015625 "/></g></g></g><g fill="#c9b3ab" fill-opacity="1"><g transform="translate(672.931607, 998.863656)"><g><path d="M 184.046875 -182.015625 L 206.96875 -182.015625 L 206.96875 0 L 183.03125 0 L 180 -27.640625 C 171.6875 -17.753906 161.40625 -10 149.15625 -4.375 C 136.90625 1.238281 123.367188 4.046875 108.546875 4.046875 C 90.785156 4.046875 74.769531 -0.109375 60.5 -8.421875 C 46.226562 -16.742188 34.992188 -28.09375 26.796875 -42.46875 C 18.597656 -56.851562 14.5 -73.035156 14.5 -91.015625 C 14.5 -109.210938 18.597656 -125.445312 26.796875 -139.71875 C 34.992188 -153.988281 46.226562 -165.28125 60.5 -173.59375 C 74.769531 -181.90625 90.785156 -186.0625 108.546875 -186.0625 C 123.597656 -186.0625 137.242188 -183.195312 149.484375 -177.46875 C 161.734375 -171.738281 172.019531 -163.929688 180.34375 -154.046875 Z M 110.90625 -23.59375 C 123.707031 -23.59375 135.164062 -26.515625 145.28125 -32.359375 C 155.394531 -38.203125 163.316406 -46.234375 169.046875 -56.453125 C 174.773438 -66.679688 177.640625 -78.203125 177.640625 -91.015625 C 177.640625 -103.816406 174.773438 -115.332031 169.046875 -125.5625 C 163.316406 -135.789062 155.394531 -143.820312 145.28125 -149.65625 C 135.164062 -155.5 123.707031 -158.421875 110.90625 -158.421875 C 98.09375 -158.421875 86.628906 -155.441406 76.515625 -149.484375 C 66.398438 -143.535156 58.421875 -135.503906 52.578125 -125.390625 C 46.734375 -115.273438 43.8125 -103.816406 43.8125 -91.015625 C 43.8125 -78.203125 46.734375 -66.738281 52.578125 -56.625 C 58.421875 -46.507812 66.398438 -38.472656 76.515625 -32.515625 C 86.628906 -26.566406 98.09375 -23.59375 110.90625 -23.59375 Z M 110.90625 -23.59375 "/></g></g></g><g fill="#c9b3ab" fill-opacity="1"><g transform="translate(889.316734, 998.863656)"><g><path d="M 28.984375 0 L 28.984375 -247.078125 L 57.640625 -247.078125 L 57.640625 0 Z M 28.984375 0 "/></g></g></g><g fill="#c9b3ab" fill-opacity="1"><g transform="translate(956.388025, 998.863656)"><g><path d="M 199.21875 -90.34375 C 199.21875 -88.539062 199.101562 -86.796875 198.875 -85.109375 C 198.644531 -83.421875 198.53125 -81.679688 198.53125 -79.890625 L 43.140625 -79.890625 C 45.390625 -63.035156 52.359375 -49.492188 64.046875 -39.265625 C 75.734375 -29.046875 90.113281 -23.9375 107.1875 -23.9375 C 119.769531 -23.9375 131.003906 -26.742188 140.890625 -32.359375 C 150.785156 -37.972656 158.539062 -45.726562 164.15625 -55.625 L 194.15625 -55.625 C 186.519531 -36.738281 175.0625 -22.070312 159.78125 -11.625 C 144.5 -1.175781 126.96875 4.046875 107.1875 4.046875 C 89.664062 4.046875 73.878906 -0.109375 59.828125 -8.421875 C 45.785156 -16.742188 34.71875 -28.09375 26.625 -42.46875 C 18.539062 -56.851562 14.5 -73.035156 14.5 -91.015625 C 14.5 -108.992188 18.539062 -125.171875 26.625 -139.546875 C 34.71875 -153.929688 45.785156 -165.28125 59.828125 -173.59375 C 73.878906 -181.90625 89.664062 -186.0625 107.1875 -186.0625 C 125.613281 -186.0625 141.738281 -181.789062 155.5625 -173.25 C 169.382812 -164.71875 180.113281 -153.203125 187.75 -138.703125 C 195.394531 -124.210938 199.21875 -108.09375 199.21875 -90.34375 Z M 107.1875 -158.765625 C 90.78125 -158.765625 76.90625 -153.988281 65.5625 -144.4375 C 54.21875 -134.882812 46.96875 -122.242188 43.8125 -106.515625 L 170.21875 -106.515625 C 167.300781 -122.691406 160.109375 -135.441406 148.640625 -144.765625 C 137.179688 -154.097656 123.363281 -158.765625 107.1875 -158.765625 Z M 107.1875 -158.765625 "/></g></g></g><g fill="#c9b3ab" fill-opacity="1"><g transform="translate(1150.190683, 998.863656)"><g><path d="M 120 -186.0625 C 134.382812 -186.0625 146.859375 -182.742188 157.421875 -176.109375 C 167.984375 -169.484375 176.070312 -160.328125 181.6875 -148.640625 C 187.300781 -136.960938 190.109375 -123.707031 190.109375 -108.875 L 190.109375 0 L 161.453125 0 L 161.453125 -102.140625 C 161.453125 -120.785156 157.238281 -135.050781 148.8125 -144.9375 C 140.382812 -154.832031 128.304688 -159.78125 112.578125 -159.78125 C 102.242188 -159.78125 92.921875 -157.140625 84.609375 -151.859375 C 76.296875 -146.578125 69.722656 -139.328125 64.890625 -130.109375 C 60.054688 -120.898438 57.640625 -110.675781 57.640625 -99.4375 L 57.640625 0 L 28.984375 0 L 28.984375 -182.015625 L 49.21875 -182.015625 L 54.9375 -153.375 C 61.6875 -163.476562 70.675781 -171.453125 81.90625 -177.296875 C 93.144531 -183.140625 105.84375 -186.0625 120 -186.0625 Z M 120 -186.0625 "/></g></g></g><g fill="#c9b3ab" fill-opacity="1"><g transform="translate(1347.363883, 998.863656)"><g><path d="M 104.15625 -26.625 L 124.046875 -26.625 L 124.046875 0 L 100.453125 0 C 80.898438 0 65.503906 -5.671875 54.265625 -17.015625 C 43.035156 -28.367188 37.421875 -43.929688 37.421875 -63.703125 L 37.421875 -156.0625 L 5.390625 -156.0625 L 5.390625 -161.125 L 61.6875 -220.453125 L 66.0625 -220.453125 L 66.0625 -182.015625 L 123.03125 -182.015625 L 123.03125 -156.0625 L 66.0625 -156.0625 L 66.0625 -64.71875 C 66.0625 -52.363281 69.320312 -42.925781 75.84375 -36.40625 C 82.363281 -29.882812 91.800781 -26.625 104.15625 -26.625 Z M 104.15625 -26.625 "/></g></g></g><g fill="#373737" fill-opacity="1"><g transform="translate(367.74758, 1139.742361)"><g><path d="M 35.28125 0.671875 C 29.375 0.671875 24.039062 -0.632812 19.28125 -3.25 C 14.53125 -5.863281 10.800781 -9.460938 8.09375 -14.046875 C 5.394531 -18.628906 4.046875 -23.789062 4.046875 -29.53125 C 4.046875 -35.269531 5.394531 -40.429688 8.09375 -45.015625 C 10.800781 -49.609375 14.546875 -53.210938 19.328125 -55.828125 C 24.109375 -58.441406 29.453125 -59.75 35.359375 -59.75 C 39.972656 -59.75 44.191406 -58.972656 48.015625 -57.421875 C 51.835938 -55.878906 55.101562 -53.585938 57.8125 -50.546875 L 52.328125 -45.234375 C 47.878906 -49.898438 42.335938 -52.234375 35.703125 -52.234375 C 31.304688 -52.234375 27.335938 -51.25 23.796875 -49.28125 C 20.253906 -47.3125 17.484375 -44.597656 15.484375 -41.140625 C 13.484375 -37.679688 12.484375 -33.8125 12.484375 -29.53125 C 12.484375 -25.257812 13.484375 -21.394531 15.484375 -17.9375 C 17.484375 -14.476562 20.253906 -11.757812 23.796875 -9.78125 C 27.335938 -7.8125 31.304688 -6.828125 35.703125 -6.828125 C 42.285156 -6.828125 47.828125 -9.191406 52.328125 -13.921875 L 57.8125 -8.609375 C 55.101562 -5.566406 51.820312 -3.257812 47.96875 -1.6875 C 44.125 -0.113281 39.894531 0.671875 35.28125 0.671875 Z M 35.28125 0.671875 "/></g></g></g><g fill="#373737" fill-opacity="1"><g transform="translate(479.781823, 1139.742361)"><g><path d="M 35.53125 0.671875 C 29.5625 0.671875 24.1875 -0.632812 19.40625 -3.25 C 14.625 -5.863281 10.867188 -9.476562 8.140625 -14.09375 C 5.410156 -18.707031 4.046875 -23.851562 4.046875 -29.53125 C 4.046875 -35.21875 5.410156 -40.367188 8.140625 -44.984375 C 10.867188 -49.597656 14.625 -53.210938 19.40625 -55.828125 C 24.1875 -58.441406 29.5625 -59.75 35.53125 -59.75 C 41.4375 -59.75 46.78125 -58.441406 51.5625 -55.828125 C 56.34375 -53.210938 60.082031 -49.609375 62.78125 -45.015625 C 65.488281 -40.429688 66.84375 -35.269531 66.84375 -29.53125 C 66.84375 -23.789062 65.488281 -18.628906 62.78125 -14.046875 C 60.082031 -9.460938 56.34375 -5.863281 51.5625 -3.25 C 46.78125 -0.632812 41.4375 0.671875 35.53125 0.671875 Z M 35.53125 -6.828125 C 39.863281 -6.828125 43.757812 -7.8125 47.21875 -9.78125 C 50.675781 -11.757812 53.398438 -14.476562 55.390625 -17.9375 C 57.390625 -21.394531 58.390625 -25.257812 58.390625 -29.53125 C 58.390625 -33.8125 57.390625 -37.679688 55.390625 -41.140625 C 53.398438 -44.597656 50.675781 -47.3125 47.21875 -49.28125 C 43.757812 -51.25 39.863281 -52.234375 35.53125 -52.234375 C 31.195312 -52.234375 27.269531 -51.25 23.75 -49.28125 C 20.238281 -47.3125 17.484375 -44.597656 15.484375 -41.140625 C 13.484375 -37.679688 12.484375 -33.8125 12.484375 -29.53125 C 12.484375 -25.257812 13.484375 -21.394531 15.484375 -17.9375 C 17.484375 -14.476562 20.238281 -11.757812 23.75 -9.78125 C 27.269531 -7.8125 31.195312 -6.828125 35.53125 -6.828125 Z M 35.53125 -6.828125 "/></g></g></g><g fill="#373737" fill-opacity="1"><g transform="translate(601.681438, 1139.742361)"><g><path d="M 63.625 0 L 63.546875 -43.046875 L 42.203125 -7.171875 L 38.3125 -7.171875 L 16.96875 -42.78125 L 16.96875 0 L 8.859375 0 L 8.859375 -59.078125 L 15.78125 -59.078125 L 40.421875 -17.546875 L 64.734375 -59.078125 L 71.640625 -59.078125 L 71.734375 0 Z M 63.625 0 "/></g></g></g><g fill="#373737" fill-opacity="1"><g transform="translate(733.277773, 1139.742361)"><g><path d="M 31.90625 -59.078125 C 39.550781 -59.078125 45.566406 -57.25 49.953125 -53.59375 C 54.347656 -49.9375 56.546875 -44.898438 56.546875 -38.484375 C 56.546875 -32.066406 54.347656 -27.03125 49.953125 -23.375 C 45.566406 -19.71875 39.550781 -17.890625 31.90625 -17.890625 L 17.296875 -17.890625 L 17.296875 0 L 8.859375 0 L 8.859375 -59.078125 Z M 31.640625 -25.234375 C 36.984375 -25.234375 41.0625 -26.367188 43.875 -28.640625 C 46.695312 -30.921875 48.109375 -34.203125 48.109375 -38.484375 C 48.109375 -42.753906 46.695312 -46.03125 43.875 -48.3125 C 41.0625 -50.59375 36.984375 -51.734375 31.640625 -51.734375 L 17.296875 -51.734375 L 17.296875 -25.234375 Z M 31.640625 -25.234375 "/></g></g></g><g fill="#373737" fill-opacity="1"><g transform="translate(845.22768, 1139.742361)"><g><path d="M 46.5 -14.765625 L 15.109375 -14.765625 L 8.609375 0 L -0.078125 0 L 26.671875 -59.078125 L 35.015625 -59.078125 L 61.859375 0 L 53 0 Z M 43.546875 -21.515625 L 30.796875 -50.46875 L 18.0625 -21.515625 Z M 43.546875 -21.515625 "/></g></g></g><g fill="#373737" fill-opacity="1"><g transform="translate(958.02077, 1139.742361)"><g><path d="M 59.671875 -59.078125 L 59.671875 0 L 52.75 0 L 17.296875 -44.046875 L 17.296875 0 L 8.859375 0 L 8.859375 -59.078125 L 15.78125 -59.078125 L 51.21875 -15.015625 L 51.21875 -59.078125 Z M 59.671875 -59.078125 "/></g></g></g><g fill="#373737" fill-opacity="1"><g transform="translate(1077.559488, 1139.742361)"><g><path d="M 31.484375 -20.421875 L 31.484375 0 L 23.125 0 L 23.125 -20.59375 L -0.34375 -59.078125 L 8.6875 -59.078125 L 27.59375 -27.9375 L 46.578125 -59.078125 L 54.9375 -59.078125 Z M 31.484375 -20.421875 "/></g></g></g></svg>